<?xml version="1.0" standalone="no"?>
<!DOCTYPE svg PUBLIC "-//W3C//DTD SVG 20010904//EN"
 "http://www.w3.org/TR/2001/REC-SVG-20010904/DTD/svg10.dtd">
<svg version="1.0" xmlns="http://www.w3.org/2000/svg"
 width="510.000000pt" height="360.000000pt" viewBox="0 0 510.000000 360.000000"
 preserveAspectRatio="xMidYMid meet">

<g transform="translate(0.000000,360.000000) scale(0.100000,-0.100000)"
fill="#000000" stroke="none">
<path d="M2353 3379 c-46 -17 -56 -79 -21 -124 25 -32 25 -56 3 -199 -8 -49
-13 -92 -11 -94 3 -2 11 5 18 17 16 27 23 26 54 -2 25 -23 25 -25 11 -60 -22
-52 -63 -70 -153 -65 -53 2 -68 1 -56 -7 9 -5 59 -10 110 -10 115 0 122 6 145
132 21 113 16 193 -12 211 -20 14 -41 9 -41 -8 0 -5 6 -7 14 -4 17 7 31 -17
40 -67 10 -56 -6 -55 -36 3 -21 42 -27 48 -28 29 0 -13 -3 -22 -6 -18 -4 3 -1
27 5 53 10 39 9 50 -4 70 -20 30 -20 28 15 64 32 33 37 52 18 67 -22 17 -42
21 -65 12z"/>
<path d="M2924 3366 c-15 -11 -19 -26 -18 -64 l0 -50 -112 -118 c-62 -65 -111
-120 -110 -122 21 -20 256 197 256 238 0 11 18 38 40 60 22 22 40 44 40 49 0
23 -67 28 -96 7z"/>
<path d="M2439 3300 c-8 -86 -11 -80 90 -184 53 -54 85 -92 71 -85 -23 11 -24
11 -11 -5 12 -15 11 -20 -12 -44 -23 -24 -25 -30 -14 -52 15 -31 67 -42 152
-34 55 6 63 10 111 58 35 34 55 63 59 85 l7 34 -33 -39 c-57 -65 -92 -94 -131
-106 -48 -14 -92 -4 -83 20 4 9 8 24 9 32 0 8 5 18 10 22 5 3 -41 59 -103 123
-90 92 -112 121 -108 138 3 12 1 31 -3 42 -8 18 -9 18 -11 -5z"/>
<path d="M3030 3300 c-64 -30 -75 -38 -78 -55 -3 -10 5 -25 17 -34 16 -13 24
-38 36 -126 8 -60 20 -118 25 -127 8 -14 6 -16 -6 -11 -8 3 -14 2 -13 -3 4
-22 -3 -31 -36 -43 -42 -15 -50 -55 -12 -65 39 -10 117 -6 151 8 55 23 139 83
124 89 -8 3 -5 6 7 6 11 1 39 12 61 25 35 20 49 22 83 16 53 -9 61 -18 36 -36
-13 -10 -31 -13 -50 -9 -28 5 -35 0 -69 -45 -21 -27 -43 -50 -49 -50 -6 0 -8
-3 -4 -6 6 -7 -14 -34 -67 -89 -28 -29 -41 -52 -46 -82 -6 -37 -4 -43 10 -43
17 0 44 23 36 31 -2 2 33 58 78 124 80 117 83 120 131 132 55 14 75 33 75 73
0 26 -1 26 -52 19 -29 -3 -55 -5 -56 -3 -2 1 14 12 37 24 46 23 50 34 20 50
-33 18 -67 4 -88 -39 l-20 -38 -131 -18 c-80 -11 -135 -14 -140 -9 -5 5 -16
57 -23 114 -14 105 -14 105 10 148 27 47 28 84 3 72z m178 -372 c-11 -31 -78
-71 -128 -76 -27 -2 -50 -1 -50 3 0 4 12 21 26 39 21 24 37 32 73 37 76 10 83
10 79 -3z"/>
<path d="M2909 3188 c0 -2 -2 -14 -3 -28 -2 -14 -6 -38 -10 -55 -4 -20 0 -15
13 15 23 51 25 70 11 70 -5 0 -10 -1 -11 -2z"/>
<path d="M2920 3084 c-14 -35 -12 -57 3 -79 28 -38 45 3 31 74 -8 38 -21 40
-34 5z"/>
<path d="M1898 3063 c-20 -24 -30 -56 -22 -76 5 -15 9 -15 34 -2 56 29 90 17
131 -45 14 -21 18 -23 32 -11 13 10 36 11 96 6 78 -7 141 -1 141 14 0 4 -42
13 -92 19 -123 16 -207 33 -206 41 4 32 -35 71 -71 71 -15 0 -35 -8 -43 -17z"/>
<path d="M1952 2966 c-6 -14 -21 -26 -34 -28 -18 -3 -13 -7 22 -17 25 -7 53
-15 63 -18 16 -4 17 -2 8 15 -6 11 -8 27 -5 36 3 8 -3 19 -15 25 -26 15 -26
15 -39 -13z"/>
<path d="M3284 2937 c-15 -13 -25 -29 -23 -36 3 -8 15 0 32 23 32 42 29 46 -9
13z"/>
<path d="M2091 2914 c-1 -20 44 -52 57 -40 2 3 -7 11 -21 17 -14 6 -28 19 -30
28 -3 11 -5 10 -6 -5z"/>
<path d="M3182 2866 c-58 -36 -106 -98 -123 -161 -6 -22 -16 -43 -23 -48 -14
-9 -82 -2 -250 25 -216 34 -387 17 -454 -47 -21 -20 -77 -125 -66 -125 2 0 28
16 58 35 105 71 231 97 361 77 l60 -10 -72 -1 c-77 -1 -199 -30 -271 -64 -56
-26 -169 -137 -177 -174 -4 -15 -8 -33 -10 -40 -6 -19 16 -86 36 -112 22 -27
23 -21 5 29 -21 57 21 158 90 219 109 95 208 110 470 68 87 -15 188 -28 223
-31 35 -3 65 -7 68 -10 3 -3 -34 -47 -81 -98 -216 -231 -283 -335 -704 -1103
-237 -432 -366 -629 -502 -766 -120 -121 -196 -151 -321 -129 -134 24 -261
116 -349 252 -52 79 -53 45 -3 -41 35 -59 89 -117 158 -169 25 -19 26 -21 5
-11 -14 6 -45 28 -70 48 -24 20 -48 36 -51 36 -4 0 -11 4 -16 9 -5 5 -2 6 6 1
10 -5 12 -4 7 4 -4 6 -11 9 -16 6 -5 -3 -34 29 -64 71 -65 89 -76 84 -14 -7
54 -79 161 -177 236 -217 74 -40 169 -62 252 -60 63 2 63 2 13 5 -29 2 -53 8
-53 12 0 5 26 14 58 20 235 46 438 309 887 1151 226 422 402 695 500 771 14
12 23 24 21 28 -3 4 22 34 54 66 41 40 62 70 66 92 4 18 11 32 18 31 6 -2 27
9 47 25 20 15 41 27 47 27 7 0 12 4 12 9 0 11 -90 32 -103 24 -5 -3 -7 -16 -4
-29 4 -21 1 -24 -27 -23 -25 0 -27 2 -12 8 22 9 13 18 -32 31 -27 8 -27 8 5 9
34 1 36 5 48 76 4 24 31 77 67 133 37 56 58 96 52 102 -5 5 -30 -4 -62 -24z
m-385 -262 c-3 -3 -12 -4 -19 -1 -8 3 -5 6 6 6 11 1 17 -2 13 -5z m50 -10 c-3
-3 -12 -4 -19 -1 -8 3 -5 6 6 6 11 1 17 -2 13 -5z m66 -11 c-7 -2 -19 -2 -25
0 -7 3 -2 5 12 5 14 0 19 -2 13 -5z m105 -10 c-15 -2 -42 -2 -60 0 -18 2 -6 4
27 4 33 0 48 -2 33 -4z m182 -17 c0 -11 -19 -15 -25 -6 -3 5 1 10 9 10 9 0 16
-2 16 -4z"/>
<path d="M3585 2710 c-76 -9 -165 -35 -227 -66 -37 -19 -63 -24 -118 -24 -75
0 -90 -11 -39 -29 52 -18 96 -13 203 23 56 19 143 46 194 62 50 15 92 31 92
36 0 9 -16 9 -105 -2z"/>
<path d="M2160 2687 c0 -2 14 -19 30 -37 38 -42 38 -54 -1 -98 -45 -51 -69
-109 -68 -167 0 -53 12 -95 21 -79 4 5 12 38 18 73 6 36 25 91 41 123 28 55
36 108 23 143 -5 13 -64 52 -64 42z"/>
<path d="M3595 2660 c-115 -31 -251 -79 -230 -79 11 -1 65 15 120 34 148 51
223 44 114 -10 -48 -25 -162 -57 -239 -69 -27 -4 -51 -21 -105 -78 -140 -146
-199 -218 -267 -323 -68 -107 -268 -460 -268 -475 0 -4 -10 -15 -22 -26 -20
-18 -19 -16 4 26 14 25 49 90 78 145 29 55 90 165 135 245 45 80 92 165 105
190 22 44 22 45 1 26 -33 -30 -25 -8 17 43 70 86 71 88 36 64 -37 -26 -57 -50
-60 -69 -1 -8 -13 -29 -26 -47 -36 -47 -44 -62 -28 -52 8 5 11 3 8 -6 -3 -8
-10 -14 -16 -14 -6 0 -17 -6 -24 -14 -11 -11 -11 -13 1 -6 9 5 12 3 9 -6 -3
-8 -10 -14 -15 -14 -6 0 -15 -4 -20 -9 -5 -5 -2 -6 6 -1 9 5 12 3 9 -6 -3 -8
-10 -13 -16 -12 -6 2 -9 -3 -6 -11 3 -8 0 -17 -7 -22 -8 -5 -10 -3 -4 7 8 12
6 12 -8 0 -19 -15 -23 -26 -6 -15 7 4 10 1 7 -7 -3 -8 -10 -13 -16 -12 -6 2
-9 -3 -6 -11 3 -8 0 -17 -7 -22 -8 -5 -10 -3 -4 6 5 9 4 11 -4 6 -6 -4 -9 -11
-6 -16 3 -5 -31 -73 -76 -151 -107 -188 -149 -276 -149 -317 0 -29 3 -33 22
-30 14 2 24 12 28 28 l6 25 8 -22 c4 -13 5 -27 2 -32 -4 -5 -1 -11 5 -13 18
-6 -1 -34 -34 -50 l-32 -15 35 -22 c49 -30 79 -27 168 18 42 21 101 46 130 56
29 9 51 19 49 21 -2 2 -37 -7 -78 -21 -115 -40 -147 -48 -165 -41 -27 10 -4
25 51 32 63 9 237 90 318 148 91 65 176 156 276 295 155 215 347 414 433 449
29 12 23 4 -40 -60 -40 -41 -70 -76 -67 -79 5 -5 -76 -104 -113 -139 -21 -19
12 24 58 75 19 22 24 31 11 20 -28 -24 -111 -122 -93 -111 21 13 13 -10 -10
-30 -22 -19 -23 -19 -8 1 15 20 14 20 -8 1 -23 -20 -30 -32 -12 -21 6 3 10 4
10 1 0 -17 -184 -262 -239 -319 -66 -69 -170 -151 -142 -111 8 10 0 4 -17 -14
-20 -21 -38 -32 -48 -28 -8 3 -13 2 -10 -3 7 -11 -22 -23 -36 -14 -6 3 -8 1
-5 -4 9 -14 -18 -24 -40 -16 -10 4 -14 2 -10 -4 4 -6 -24 -23 -70 -42 -85 -35
-163 -78 -163 -90 0 -5 7 -14 16 -22 13 -10 19 -10 36 0 11 7 23 9 27 4 7 -9
47 -33 56 -33 4 0 4 4 1 9 -7 11 19 34 42 37 52 8 115 25 149 40 21 9 43 18
49 19 7 2 44 21 82 44 126 73 218 166 308 308 21 32 40 60 44 63 4 3 25 32 47
65 34 51 91 126 193 254 48 61 210 231 258 271 30 25 68 57 85 72 l32 27 -30
1 c-65 0 -231 -99 -265 -158 l-21 -37 38 41 c36 39 93 81 93 69 0 -3 9 -1 20
5 32 17 23 4 -26 -42 -53 -49 -177 -191 -309 -353 -49 -60 -95 -114 -101 -120
-22 -20 -102 -141 -125 -189 -78 -167 -365 -348 -574 -362 l-50 -3 27 24 c16
13 52 29 85 35 223 46 386 170 563 430 47 69 141 197 209 284 69 88 125 168
126 178 1 10 12 30 26 44 l24 26 -25 -6 c-24 -7 13 15 184 113 42 24 75 45 74
47 -10 10 -133 -33 -205 -71 -199 -105 -416 -318 -602 -592 -71 -104 -198
-230 -285 -282 -74 -44 -217 -98 -284 -107 -52 -7 -52 -6 -50 20 1 14 6 26 10
26 4 0 8 6 8 14 0 8 17 45 38 83 22 37 58 104 82 148 112 210 294 497 350 554
14 14 34 37 45 51 48 60 91 87 161 100 38 7 94 21 124 32 30 10 60 20 65 21
40 11 125 76 125 96 0 16 -55 13 -135 -9z m260 -308 c-6 -5 -37 -33 -70 -62
l-60 -54 60 62 c33 34 64 62 69 62 6 0 6 -3 1 -8z m-865 -127 c-7 -9 -15 -13
-18 -10 -3 2 1 11 8 20 7 9 15 13 18 10 3 -2 -1 -11 -8 -20z m-265 -733 c-3
-3 -11 0 -18 7 -9 10 -8 11 6 5 10 -3 15 -9 12 -12z m1 -74 c-9 -5 -21 -6 -28
-2 -8 5 -5 10 8 14 25 10 41 0 20 -12z"/>
<path d="M2240 2591 c0 -17 -11 -54 -25 -81 -37 -73 -30 -93 10 -28 43 68 53
109 31 127 -14 12 -16 10 -16 -18z"/>
<path d="M3300 2569 c-25 -10 -40 -26 -40 -43 0 -6 6 -3 13 6 6 9 26 23 42 32
33 17 24 20 -15 5z"/>
<path d="M3200 2505 c-18 -19 -20 -25 -8 -25 15 0 48 30 48 43 0 14 -17 6 -40
-18z"/>
<path d="M3163 2443 c-27 -25 -92 -123 -81 -123 3 0 20 21 38 48 18 26 45 59
58 75 14 15 24 27 21 27 -3 0 -19 -12 -36 -27z"/>
<path d="M2208 2413 c-36 -39 -40 -60 -27 -144 10 -68 14 -77 52 -111 23 -21
48 -38 56 -38 8 0 -4 13 -25 28 -30 22 -43 41 -57 84 -24 76 -22 121 8 168 30
47 28 50 -7 13z"/>
<path d="M3492 1968 c-20 -29 -65 -91 -97 -137 -33 -46 -91 -113 -130 -149
-38 -36 -56 -56 -40 -45 67 48 150 143 258 301 63 90 70 113 9 30z"/>
<path d="M2810 1990 c-6 -11 -8 -20 -6 -20 3 0 10 9 16 20 6 11 8 20 6 20 -3
0 -10 -9 -16 -20z"/>
<path d="M1470 1984 c-150 -39 -312 -155 -402 -287 -157 -231 -216 -573 -148
-855 23 -94 74 -225 96 -243 19 -15 19 -16 -15 87 -49 149 -64 237 -64 384 -1
154 18 268 63 392 34 93 97 211 109 203 5 -2 15 3 22 13 13 15 12 16 -3 3 -29
-22 -21 3 9 30 21 18 24 19 13 4 -11 -15 -8 -14 13 4 28 25 38 43 12 21 -24
-20 -17 4 8 28 26 25 46 30 27 7 -24 -28 -4 -15 26 17 24 27 25 29 4 13 l-25
-20 24 28 c25 27 48 37 35 15 -4 -8 -3 -10 2 -5 5 5 9 14 9 20 0 7 8 11 18 11
9 -1 14 3 10 9 -4 6 0 8 10 4 10 -4 16 -2 14 5 -1 6 4 13 12 16 9 3 11 0 6 -8
-5 -9 -4 -11 4 -6 6 4 9 11 6 16 -7 12 90 47 169 61 96 16 302 -15 341 -52 5
-6 -10 -3 -34 6 -82 29 -95 15 -26 -28 83 -53 144 -145 147 -222 2 -53 -18
-67 -36 -24 -11 25 -16 29 -16 14 -1 -11 -7 2 -14 28 -8 27 -23 58 -35 70 -25
26 -27 13 -4 -39 25 -58 22 -202 -4 -276 -47 -128 -125 -201 -261 -244 -56
-18 -79 -30 -70 -35 35 -22 153 4 195 43 18 17 22 18 17 5 -8 -23 -3 -22 58 9
76 38 141 105 173 176 52 117 44 281 -20 408 -14 27 -24 54 -23 59 2 5 -6 17
-17 26 -19 16 -19 16 4 5 13 -7 50 -36 82 -66 66 -61 89 -69 62 -23 -47 80
-170 161 -295 195 -68 18 -217 17 -288 -2z m415 -142 c-3 -3 -18 7 -33 23
l-27 28 33 -23 c18 -12 31 -25 27 -28z m27 -467 c30 12 28 -13 -5 -61 -23 -35
-48 -58 -89 -79 -31 -16 -60 -26 -64 -22 -4 4 11 26 33 50 22 23 53 62 68 86
17 28 30 40 34 32 4 -6 15 -9 23 -6z"/>
<path d="M2780 1940 c-6 -11 -8 -20 -6 -20 3 0 10 9 16 20 6 11 8 20 6 20 -3
0 -10 -9 -16 -20z"/>
<path d="M1554 1933 c52 -4 57 -6 40 -17 -10 -8 -48 -21 -83 -30 -99 -25 -197
-82 -276 -161 -96 -95 -153 -161 -176 -207 -11 -21 -21 -38 -24 -38 -7 0 12
47 47 115 16 33 25 56 19 50 -21 -21 -82 -158 -105 -239 -34 -116 -49 -264
-37 -361 5 -42 11 -79 14 -81 2 -3 6 43 9 101 7 151 24 155 31 8 3 -65 13
-138 21 -163 9 -25 14 -34 11 -20 -27 132 -29 306 -4 405 20 81 54 180 64 187
5 4 7 8 3 8 -7 0 50 106 74 136 37 47 168 170 168 157 0 -2 12 4 28 14 70 48
134 68 211 67 102 -1 154 -17 202 -63 21 -21 39 -35 39 -31 0 5 -26 31 -57 59
-51 46 -54 51 -32 51 14 0 31 -6 39 -12 8 -7 4 -1 -9 14 -34 39 -100 58 -195
56 -72 -2 -74 -2 -22 -5z"/>
<path d="M2687 1777 c-41 -73 -88 -169 -103 -212 -16 -45 -42 -95 -60 -115
-17 -19 -77 -120 -134 -225 -203 -378 -336 -584 -479 -740 -49 -54 -44 -50 21
16 127 129 271 352 469 723 48 91 91 157 121 188 39 40 50 60 62 111 19 81 33
112 104 238 75 132 84 149 78 149 -2 0 -38 -60 -79 -133z"/>
<path d="M2026 1664 c-3 -9 -6 -47 -6 -84 0 -173 -59 -288 -186 -360 -29 -17
-56 -35 -59 -41 -12 -19 26 -21 81 -3 61 19 153 94 180 146 20 38 24 33 17
-22 -13 -97 -185 -205 -280 -175 -25 8 -31 25 -10 26 6 0 2 4 -11 9 -17 7 -34
3 -70 -16 -39 -21 -55 -24 -96 -18 -66 9 -52 -9 19 -25 81 -18 131 -21 209
-10 129 18 233 93 290 212 31 64 51 210 37 277 l-9 45 -1 -68 c-1 -75 -14 -82
-27 -14 l-9 42 -6 -60 -6 -60 -2 65 c-1 39 -9 82 -21 108 -21 46 -25 49 -34
26z"/>
<path d="M2121 1644 c0 -11 3 -14 6 -6 3 7 2 16 -1 19 -3 4 -6 -2 -5 -13z"/>
<path d="M2524 1397 c-16 -13 -48 -58 -70 -98 -23 -41 -87 -157 -144 -259
-106 -191 -200 -342 -271 -433 -64 -82 -182 -198 -196 -193 -7 3 -15 0 -19 -6
-5 -7 -2 -8 6 -3 9 6 11 4 6 -4 -5 -7 -14 -10 -22 -7 -7 3 -16 0 -20 -6 -5 -7
-2 -8 6 -3 9 6 11 4 6 -4 -5 -7 -15 -10 -23 -7 -8 3 -12 2 -9 -3 7 -11 -22
-23 -36 -14 -7 4 -8 1 -3 -7 6 -9 2 -10 -15 -5 -17 5 -20 4 -15 -5 6 -10 1
-11 -21 -6 -18 4 -24 3 -16 -2 21 -14 -20 -22 -113 -22 -61 0 -100 7 -164 29
-47 16 -76 22 -66 15 32 -24 117 -51 198 -64 326 -53 539 147 912 852 72 136
117 200 131 186 9 -10 -23 -64 -49 -80 -13 -9 -49 -67 -82 -129 -132 -258
-287 -527 -350 -609 -73 -95 -177 -186 -258 -225 -99 -47 -118 -47 -332 -1
-117 25 -196 59 -252 109 -13 11 -23 17 -23 13 0 -4 23 -29 51 -54 28 -25 47
-48 41 -50 -20 -6 -121 69 -189 141 -37 40 -59 61 -50 47 61 -89 203 -202 302
-239 110 -41 266 -53 367 -26 69 17 164 61 191 86 12 10 25 19 29 19 5 0 6 5
3 10 -3 6 0 10 8 10 32 0 214 227 310 385 74 122 214 377 270 490 26 52 44 65
78 55 36 -11 125 -77 172 -129 20 -22 37 -37 37 -33 0 11 -117 123 -153 147
-38 25 -19 45 20 21 l28 -17 -30 27 -30 26 33 -18 c19 -11 39 -25 45 -33 10
-12 9 -13 -3 -6 -9 5 -12 4 -7 -1 5 -5 15 -9 22 -9 8 0 31 -16 52 -36 46 -43
63 -54 63 -39 0 6 -19 31 -41 55 -23 25 -49 60 -59 77 -12 23 -36 43 -84 66
-91 47 -134 51 -172 19z m96 -67 c0 -5 -6 -10 -14 -10 -8 0 -18 5 -21 10 -3 6
3 10 14 10 12 0 21 -4 21 -10z"/>
<path d="M2915 1303 c6 -24 5 -25 -12 -12 -17 13 -17 12 0 -8 11 -12 24 -20
31 -17 7 3 40 -25 74 -61 34 -36 67 -65 73 -65 18 0 -24 62 -87 127 -67 69
-90 79 -79 36z"/>
<path d="M2820 1285 c0 -2 28 -32 63 -67 35 -35 71 -74 81 -88 9 -14 4 0 -11
30 -32 63 -92 130 -116 130 -10 0 -17 -2 -17 -5z"/>
<path d="M2888 1039 c34 -51 59 -116 97 -254 30 -108 97 -265 114 -265 6 0 -5
42 -24 93 -18 52 -48 143 -65 203 -36 125 -78 208 -121 243 l-30 23 29 -43z"/>
<path d="M3054 1014 c16 -115 85 -324 106 -324 9 0 -54 260 -75 317 -24 63
-39 66 -31 7z"/>
<path d="M3141 1024 c0 -11 3 -14 6 -6 3 7 2 16 -1 19 -3 4 -6 -2 -5 -13z"/>
<path d="M3162 955 c0 -11 6 -42 13 -70 7 -27 13 -41 13 -30 0 11 -6 43 -13
70 -7 28 -13 41 -13 30z"/>
<path d="M3191 814 c0 -11 3 -14 6 -6 3 7 2 16 -1 19 -3 4 -6 -2 -5 -13z"/>
<path d="M3220 725 c0 -5 5 -17 10 -25 5 -8 10 -10 10 -5 0 6 -5 17 -10 25 -5
8 -10 11 -10 5z"/>
<path d="M3240 671 c0 -6 4 -13 10 -16 6 -3 7 1 4 9 -7 18 -14 21 -14 7z"/>
<path d="M3260 597 c0 -17 55 -105 88 -140 15 -15 27 -35 27 -44 0 -9 7 -18
15 -20 13 -4 13 -3 0 6 -8 5 -12 12 -9 15 3 3 16 -6 30 -21 13 -15 16 -21 7
-14 -11 8 -18 9 -18 3 0 -11 52 -52 65 -52 4 0 2 7 -6 16 -7 8 11 1 40 -17 41
-26 65 -33 114 -36 l62 -3 -41 13 c-123 41 -277 163 -335 267 -23 40 -39 51
-39 27z"/>
<path d="M3196 468 c4 -7 18 -27 31 -44 12 -17 21 -33 18 -36 -3 -2 20 -28 50
-57 50 -47 66 -71 49 -71 -11 0 -69 43 -113 84 -24 23 -38 32 -30 20 22 -33
115 -109 162 -132 99 -49 244 -51 359 -5 31 12 35 18 27 31 -8 13 -23 16 -68
14 -31 -2 -82 3 -112 11 -46 12 -57 12 -67 0 -7 -7 -23 -13 -35 -12 -12 0 -16
3 -9 6 25 10 11 24 -50 52 -35 15 -96 56 -136 90 -75 62 -89 71 -76 49z m129
-142 c6 -4 1 -4 -10 2 -11 6 -31 23 -45 39 l-25 28 35 -30 c19 -16 40 -34 45
-39z m300 -69 l60 -13 -34 -12 c-46 -16 -68 -15 -125 7 -78 29 -13 41 99 18z"/>
<path d="M3131 443 c7 -12 15 -20 18 -17 3 2 -3 12 -13 22 -17 16 -18 16 -5
-5z"/>
<path d="M3475 320 c3 -5 11 -10 16 -10 6 0 7 5 4 10 -3 6 -11 10 -16 10 -6 0
-7 -4 -4 -10z"/>
</g>
</svg>
